<?xml version="1.0" encoding="utf-8"?>
<!-- Generator: Adobe Illustrator 21.0.0, SVG Export Plug-In . SVG Version: 6.00 Build 0)  -->
<svg version="1.1" id="图层_1" xmlns="http://www.w3.org/2000/svg" xmlns:xlink="http://www.w3.org/1999/xlink" x="0px" y="0px"
	 viewBox="0 0 2000 2000" style="enable-background:new 0 0 2000 2000;" xml:space="preserve">
<g>
	<path d="M946.6,179.4v1621.8H59.4V179.4H946.6 M1002,124H4v1732.6h998V124L1002,124z"/>
</g>
<g>
	<path d="M1944.6,179.4v1621.8h-887.1V179.4H1944.6 M2000,124h-998v1732.6h998V124L2000,124z"/>
</g>
<g>
	<path d="M322.8,179.4v388.1H198.1V179.4H322.8 M378.3,124H142.6v499h235.6V124L378.3,124z"/>
</g>
<g>
	<rect x="142.6" y="761.6" width="720.8" height="55.4"/>
</g>
<g>
	<rect x="142.6" y="955.7" width="720.8" height="55.4"/>
</g>
<g>
	<rect x="142.6" y="1149.7" width="720.8" height="55.4"/>
</g>
<g>
	<rect x="142.6" y="1343.8" width="720.8" height="55.4"/>
</g>
<g>
	<rect x="1140.6" y="761.6" width="720.8" height="55.4"/>
</g>
<g>
	<rect x="1140.6" y="955.7" width="720.8" height="55.4"/>
</g>
<g>
	<rect x="1140.6" y="1149.7" width="720.8" height="55.4"/>
</g>
<g>
	<rect x="1140.6" y="1343.8" width="720.8" height="55.4"/>
</g>
</svg>
