<?xml version="1.0" encoding="utf-8"?>
<!-- Generator: Adobe Illustrator 21.0.0, SVG Export Plug-In . SVG Version: 6.00 Build 0)  -->
<svg version="1.1" id="图层_1" xmlns="http://www.w3.org/2000/svg" xmlns:xlink="http://www.w3.org/1999/xlink" x="0px" y="0px"
	 viewBox="0 0 2000 2000" style="enable-background:new 0 0 2000 2000;" xml:space="preserve">
<style type="text/css">
	.st0{fill:#FFFFFF;}
</style>
<path d="M1944.4,395.8v527.8H55.6V395.8H1944.4 M2000,340.2H0v638.9h2000V340.2L2000,340.2z"/>
<path d="M1611.1,395.8v388.9H388.9V395.8H1611.1 M1666.7,340.2H333.3v500h1333.3V340.2L1666.7,340.2z"/>
<path d="M1333.3,187.4v152.8H680.6V187.4H1333.3 M1388.9,131.9H625v263.9h763.9V131.9L1388.9,131.9z"/>
<path d="M1500,645.8v27.8h-27.8v-27.8H1500 M1555.6,590.2h-138.9v138.9h138.9V590.2L1555.6,590.2z"/>
<path d="M1944.4,1090.2v472.2H55.6v-472.2H1944.4 M2000,1034.7H0V1618h2000V1034.7L2000,1034.7z"/>
<g>
	<polygon class="st0" points="439.9,1840.2 562.5,1423.6 1437.5,1423.6 1560.1,1840.2 	"/>
	<path d="M1416.8,1451.3l106.2,361.1H477l106.2-361.1H1416.8 M1458.3,1395.8H541.7L402.8,1868h1194.4L1458.3,1395.8L1458.3,1395.8z"
		/>
</g>
</svg>
