<?xml version="1.0" encoding="utf-8"?>
<!-- Generator: Adobe Illustrator 21.0.0, SVG Export Plug-In . SVG Version: 6.00 Build 0)  -->
<svg version="1.1" id="图层_1" xmlns="http://www.w3.org/2000/svg" xmlns:xlink="http://www.w3.org/1999/xlink" x="0px" y="0px"
	 viewBox="0 0 2000 2000" style="enable-background:new 0 0 2000 2000;" xml:space="preserve">
<path d="M584.6,61.5v1800H61.5V61.5H584.6 M646.2,0H0v1923.1h646.2V0L646.2,0z"/>
<path d="M353.8,184.6v61.5h-61.5v-61.5H353.8 M415.4,123.1H230.8v184.6h184.6V123.1L415.4,123.1z"/>
<path d="M353.8,430.8v61.5h-61.5v-61.5H353.8 M415.4,369.2H230.8v184.6h184.6V369.2L415.4,369.2z"/>
<path d="M353.8,676.9v61.5h-61.5v-61.5H353.8 M415.4,615.4H230.8V800h184.6V615.4L415.4,615.4z"/>
<path d="M353.8,1015.4v723.1h-61.5v-723.1H353.8 M415.4,953.8H230.8V1800h184.6V953.8L415.4,953.8z"/>
<path d="M1261.5,61.5v1800H738.5V61.5H1261.5 M1323.1,0H676.9v1923.1h646.2V0L1323.1,0z"/>
<path d="M1030.8,184.6v61.5h-61.5v-61.5H1030.8 M1092.3,123.1H907.7v184.6h184.6V123.1L1092.3,123.1z"/>
<path d="M1030.8,430.8v61.5h-61.5v-61.5H1030.8 M1092.3,369.2H907.7v184.6h184.6V369.2L1092.3,369.2z"/>
<path d="M1030.8,676.9v61.5h-61.5v-61.5H1030.8 M1092.3,615.4H907.7V800h184.6V615.4L1092.3,615.4z"/>
<path d="M1030.8,1015.4v723.1h-61.5v-723.1H1030.8 M1092.3,953.8H907.7V1800h184.6V953.8L1092.3,953.8z"/>
<path d="M1938.5,61.5v1800h-523.1V61.5H1938.5 M2000,0h-646.2v1923.1H2000V0L2000,0z"/>
<path d="M1707.7,184.6v61.5h-61.5v-61.5H1707.7 M1769.2,123.1h-184.6v184.6h184.6V123.1L1769.2,123.1z"/>
<path d="M1707.7,430.8v61.5h-61.5v-61.5H1707.7 M1769.2,369.2h-184.6v184.6h184.6V369.2L1769.2,369.2z"/>
<path d="M1707.7,676.9v61.5h-61.5v-61.5H1707.7 M1769.2,615.4h-184.6V800h184.6V615.4L1769.2,615.4z"/>
<path d="M1707.7,1015.4v723.1h-61.5v-723.1H1707.7 M1769.2,953.8h-184.6V1800h184.6V953.8L1769.2,953.8z"/>
</svg>
