<?xml version="1.0" encoding="utf-8"?>
<!-- Generator: Adobe Illustrator 21.0.0, SVG Export Plug-In . SVG Version: 6.00 Build 0)  -->
<svg version="1.1" id="图层_1" xmlns="http://www.w3.org/2000/svg" xmlns:xlink="http://www.w3.org/1999/xlink" x="0px" y="0px"
	 viewBox="0 0 2000 2000" style="enable-background:new 0 0 2000 2000;" xml:space="preserve">
<g>
	<path d="M1944.4,322v944.7H55.1V322H1944.4 M2000,266.4H-0.5v1055.8H2000V266.4L2000,266.4z"/>
</g>
<g>
	<path d="M1847.2,433.1v722.4H152.3V433.1H1847.2 M1902.8,377.6H96.8v833.5h1806V377.6L1902.8,377.6z"/>
</g>
<g>
	<rect x="666.3" y="1294.5" width="55.6" height="541.8"/>
</g>
<g>
	<rect x="1277.6" y="1294.5" width="55.6" height="541.8"/>
</g>
<g>
	<rect x="569.1" y="1516.7" width="861.3" height="55.6"/>
</g>
<g>
	<rect x="-0.5" y="1780.7" width="2000.5" height="55.6"/>
</g>
<g>
	<g>
		<polygon points="1333.2,294.2 1277.6,294.2 1277.6,155.3 721.9,155.3 721.9,294.2 666.3,294.2 666.3,99.7 1333.2,99.7 		"/>
	</g>
</g>
</svg>
