<?xml version="1.0" encoding="utf-8"?>
<!-- Generator: Adobe Illustrator 21.0.0, SVG Export Plug-In . SVG Version: 6.00 Build 0)  -->
<svg version="1.1" id="图层_1" xmlns="http://www.w3.org/2000/svg" xmlns:xlink="http://www.w3.org/1999/xlink" x="0px" y="0px"
	 viewBox="0 0 2000 2000" style="enable-background:new 0 0 2000 2000;" xml:space="preserve">
<g>
	<path d="M909.1,763.3v1436.4H72.7V763.3H909.1 M981.8,690.5H0v1581.8h981.8V690.5L981.8,690.5z"/>
</g>
<g>
	<path d="M1927.3,763.3v1436.4h-836.4V763.3H1927.3 M2000,690.5h-981.8v1581.8H2000V690.5L2000,690.5z"/>
</g>
<g>
	<path d="M909.1,72.4v618.2H72.7V72.4H909.1 M981.8-0.4H0v763.6h981.8V-0.4L981.8-0.4z"/>
</g>
<g>
	<path d="M1664.1,254.2l218.2,436.4h-746.5L1354,254.2H1664.1 M1709.1,181.5h-400l-290.9,581.8H2000L1709.1,181.5L1709.1,181.5z"/>
</g>
<g>
	<rect x="181.8" y="-0.4" width="72.7" height="763.6"/>
</g>
<g>
	<rect x="454.5" y="-0.4" width="72.7" height="763.6"/>
</g>
<g>
	<rect x="727.3" y="-0.4" width="72.7" height="763.6"/>
</g>
<g>
	<rect x="254.5" y="1417.8" width="472.7" height="72.7"/>
</g>
<g>
	<rect x="254.5" y="1617.8" width="472.7" height="72.7"/>
</g>
<g>
	<rect x="1272.7" y="1417.8" width="472.7" height="72.7"/>
</g>
<g>
	<rect x="1272.7" y="1617.8" width="472.7" height="72.7"/>
</g>
</svg>
