<?xml version="1.0" encoding="utf-8"?>
<!-- Generator: Adobe Illustrator 21.0.0, SVG Export Plug-In . SVG Version: 6.00 Build 0)  -->
<svg version="1.1" id="图层_1" xmlns="http://www.w3.org/2000/svg" xmlns:xlink="http://www.w3.org/1999/xlink" x="0px" y="0px"
	 viewBox="0 0 2000 2000" style="enable-background:new 0 0 2000 2000;" xml:space="preserve">
<g>
	<path d="M1029,141.3l420.5,827.5l-199.1,255.9l-80.3,103.3h118.9l171.9,185.1V1936H597v-422.9L768.9,1328h118.9l-80.3-103.3
		L608.5,968.8L1029,141.3 M1029,0L533,976l224,288h-16l-208,224v512h992v-512l-208-224h-16l224-288L1029,0L1029,0z"/>
</g>
<g>
	<rect x="997" y="144" width="64" height="720"/>
</g>
<g>
	<circle cx="1021" cy="896" r="80"/>
	<path d="M1021,1008c-61.8,0-112-50.2-112-112s50.2-112,112-112s112,50.2,112,112S1082.8,1008,1021,1008z M1021,848
		c-26.5,0-48,21.5-48,48s21.5,48,48,48s48-21.5,48-48S1047.5,848,1021,848z"/>
</g>
<g>
	<rect x="581" y="1472" width="928" height="64"/>
</g>
<g>
	<rect x="773" y="1264" width="496" height="64"/>
</g>
</svg>
