<?xml version="1.0" encoding="utf-8"?>
<!-- Generator: Adobe Illustrator 21.0.0, SVG Export Plug-In . SVG Version: 6.00 Build 0)  -->
<svg version="1.1" id="图层_1" xmlns="http://www.w3.org/2000/svg" xmlns:xlink="http://www.w3.org/1999/xlink" x="0px" y="0px"
	 viewBox="0 0 2000 2000" style="enable-background:new 0 0 2000 2000;" xml:space="preserve">
<path d="M505.8,55.6l50.1,450.6l5.5,49.4h49.7h1271.6l-99.4,944.4H437.4L277.3,325.8l-6.6-48h-48.5H102.6l-37-222.2H505.8 M555.6,0
	H0l55.6,333.3h166.7l166.7,1222.2h1444.4L1944.4,500H611.1L555.6,0L555.6,0z"/>
<path d="M555.6,1722.2c61.3,0,111.1,49.8,111.1,111.1s-49.8,111.1-111.1,111.1s-111.1-49.8-111.1-111.1S494.3,1722.2,555.6,1722.2
	 M555.6,1666.7c-92,0-166.7,74.6-166.7,166.7c0,92,74.6,166.7,166.7,166.7s166.7-74.6,166.7-166.7
	C722.2,1741.3,647.6,1666.7,555.6,1666.7L555.6,1666.7z"/>
<path d="M1666.7,1722.2c61.3,0,111.1,49.8,111.1,111.1s-49.8,111.1-111.1,111.1s-111.1-49.8-111.1-111.1
	S1605.4,1722.2,1666.7,1722.2 M1666.7,1666.7c-92,0-166.7,74.6-166.7,166.7c0,92,74.6,166.7,166.7,166.7
	c92,0,166.7-74.6,166.7-166.7C1833.3,1741.3,1758.7,1666.7,1666.7,1666.7L1666.7,1666.7z"/>
</svg>
