<?xml version="1.0" encoding="utf-8"?>
<!-- Generator: Adobe Illustrator 21.0.0, SVG Export Plug-In . SVG Version: 6.00 Build 0)  -->
<svg version="1.1" id="图层_1" xmlns="http://www.w3.org/2000/svg" xmlns:xlink="http://www.w3.org/1999/xlink" x="0px" y="0px"
	 viewBox="0 0 2000 2000" style="enable-background:new 0 0 2000 2000;" xml:space="preserve">
<style type="text/css">
	.st0{fill:#535353;}
	.st1{fill:#FFFFFF;}
</style>
<g>
	<path class="st0" d="M1529.9,51.3v498.2v168.5H866.3V549.4V51.3H1529.9 M1581.2,0H815v549.4v219.8h766.2V549.4V0L1581.2,0z"/>
	<path class="st0" d="M1558,1076.9l498.9,871.8h-1719l498.9-871.8H1558 M1587.7,1025.6H807L249.4,2000h1895.9L1587.7,1025.6
		L1587.7,1025.6z"/>
	<g>
		<rect x="581.2" y="25.6" class="st1" width="717.9" height="717.9"/>
		<path class="st0" d="M1273.5,51.3v498.2v168.5H606.8V549.4V51.3H1273.5 M1324.8,0H555.6v549.4v219.8h769.2V549.4V0L1324.8,0z"/>
	</g>
	<g>
		<polygon class="st1" points="44.2,1974.4 572.5,1051.3 1323.4,1051.3 1851.7,1974.4 		"/>
		<path class="st0" d="M1308.5,1076.9l498.9,871.8H88.4l498.9-871.8H1308.5 M1338.3,1025.6H557.6L0,2000h1895.9L1338.3,1025.6
			L1338.3,1025.6z"/>
	</g>
	<rect x="1222.2" y="51.3" class="st0" width="51.3" height="717.9"/>
</g>
</svg>
