<?xml version="1.0" encoding="utf-8"?>
<!-- Generator: Adobe Illustrator 21.1.0, SVG Export Plug-In . SVG Version: 6.00 Build 0)  -->
<svg version="1.1" id="图层_1" xmlns="http://www.w3.org/2000/svg" xmlns:xlink="http://www.w3.org/1999/xlink" x="0px" y="0px"
	 viewBox="0 0 2000 2000" style="enable-background:new 0 0 2000 2000;" xml:space="preserve">
<style type="text/css">
	.st0{display:none;fill:#FFFFFF;}
	.st1{display:none;fill:#FF6464;}
	.st2{fill:none;}
	.st3{fill:#535353;}
	.st4{fill:#FFFFFF;}
</style>
<path class="st0" d="M1499.4,142.9C1352.5,57.8,1181.9,9.1,999.7,9.1c-552.4,0-1000,447.6-1000,1000c0,552.4,447.6,1000,1000,1000
	c552.4,0,1000-447.6,1000-1000C1999.7,638.9,1798.6,315.7,1499.4,142.9L1499.4,142.9z"/>
<path class="st1" d="M1710.7,904c0-240.1-186.1-435.3-414.3-435.3c-112.8,0-219.5,49.3-296.6,133.3
	c-77.4-84-184.1-133.3-296.7-133.3c-228.4,0-414.3,195.1-414.3,435.3c0,8.1,0.7,15.3,1.4,21.1c-0.1,2-0.3,3.8-0.3,5.9
	c0,42.5,10.2,89.1,30.2,138.9c0.7,1.8,1.3,3.5,2,5.1c126.3,306.6,612.3,659.3,633,675.6c12.9,10.1,28.1,14.9,43.5,14.9
	c15.6,0,30.9-5.1,43.9-15.3c17.7-14,432.2-316,596.9-602c6.2-9.6,10.9-19,15.2-27.1c1.3-2.5,2.4-5.1,3.8-7.7l0.6-1.1
	c0.6-1,1.1-2,1.8-2.8c9.9-19.4,17.7-37.5,23.9-55.1c17-45.3,25.5-85.6,25.5-123.3c0-2.8-0.1-5.5-0.3-7.7
	C1710.2,918.6,1710.7,911.9,1710.7,904L1710.7,904z M1710.7,904"/>
<rect x="370" y="612" class="st2" width="802.8" height="733.9"/>
<rect x="0.5" y="1904.8" class="st3" width="2000" height="95.2"/>
<g>
	<rect x="24.3" y="23.8" class="st4" width="1476.2" height="1857.1"/>
	<path class="st3" d="M1476.7,47.6v1809.5H48.1V47.6H1476.7 M1524.3,0H0.5v1904.8h1523.8V0L1524.3,0z"/>
</g>
<g>
	<rect x="1500.5" y="500" class="st4" width="476.2" height="1381"/>
	<path class="st3" d="M1952.9,523.8v1333.3h-428.6V523.8H1952.9 M2000.5,476.2h-523.8v1428.6h523.8V476.2L2000.5,476.2z"/>
</g>
<g>
	<rect x="214.8" y="261.9" class="st4" width="1095.2" height="1190.5"/>
	<path class="st3" d="M1286.2,285.7v1142.9H238.6V285.7H1286.2 M1333.8,238.1H191v1238.1h1142.9V238.1L1333.8,238.1z"/>
</g>
<g>
	<rect x="214.8" y="1452.4" class="st4" width="1095.2" height="47.6"/>
	<polygon class="st3" points="1333.8,1428.6 191,1428.6 191,1523.8 1333.8,1523.8 1333.8,1428.6 	"/>
</g>
<g>
	<rect x="214.8" y="1642.9" class="st4" width="1095.2" height="47.6"/>
	<polygon class="st3" points="1333.8,1619 191,1619 191,1714.3 1333.8,1714.3 1333.8,1619 	"/>
</g>
</svg>
