<?xml version="1.0" encoding="utf-8"?>
<!-- Generator: Adobe Illustrator 21.0.0, SVG Export Plug-In . SVG Version: 6.00 Build 0)  -->
<svg version="1.1" id="图层_1" xmlns="http://www.w3.org/2000/svg" xmlns:xlink="http://www.w3.org/1999/xlink" x="0px" y="0px"
	 viewBox="0 0 2000 2000" style="enable-background:new 0 0 2000 2000;" xml:space="preserve">
<style type="text/css">
	.st0{fill:#535353;}
	.st1{fill:#FFFFFF;}
</style>
<path class="st0" d="M1965.9,809.5v1142.9H61.2V809.5H1965.9 M2013.6,761.9H13.6V2000h2000V761.9L2013.6,761.9z"/>
<g>
	<path class="st1" d="M1013.6,1340.7C925.1,1218.8,559.4,701.6,559.4,478c0-250.5,203.7-454.2,454.2-454.2s454.2,203.8,454.2,454.2
		C1467.7,701.7,1102,1218.8,1013.6,1340.7z"/>
	<path class="st0" d="M1013.6,47.6c237.3,0,430.4,193.1,430.4,430.4c0,185.9-282.2,616.5-430.4,822.4
		C865.4,1094.5,583.1,664,583.1,478C583.1,240.7,776.2,47.6,1013.6,47.6 M1013.6,0c-264,0-478,214-478,478
		c0,264,478,902.9,478,902.9s478-638.9,478-902.9C1491.6,214,1277.6,0,1013.6,0L1013.6,0z"/>
</g>
<path class="st0" d="M1013.6,260.1c120.2,0,217.9,97.8,217.9,217.9S1133.7,696,1013.6,696S795.6,598.2,795.6,478
	S893.4,260.1,1013.6,260.1 M1013.6,212.5C866.9,212.5,748,331.4,748,478c0,146.7,118.9,265.6,265.6,265.6s265.6-118.9,265.6-265.6
	C1279.1,331.4,1160.2,212.5,1013.6,212.5L1013.6,212.5z"/>
<rect x="251.6" y="809.5" class="st0" width="95.2" height="1142.9"/>
<rect x="1680.2" y="809.5" class="st0" width="95.2" height="1142.9"/>
</svg>
