<?xml version="1.0" encoding="utf-8"?>
<!-- Generator: Adobe Illustrator 21.0.0, SVG Export Plug-In . SVG Version: 6.00 Build 0)  -->
<svg version="1.1" id="图层_1" xmlns="http://www.w3.org/2000/svg" xmlns:xlink="http://www.w3.org/1999/xlink" x="0px" y="0px"
	 viewBox="0 0 2000 2000" style="enable-background:new 0 0 2000 2000;" xml:space="preserve">
<style type="text/css">
	.st0{fill:#535353;}
</style>
<g>
	<path class="st0" d="M1465.4,0L65.4,1400l600,600l1400-1400L1465.4,0z M132.1,1400L1465.4,66.7L1998.8,600L665.4,1933.3L132.1,1400
		z"/>
	<path class="st0" d="M1632.1,433.3c-36.8-36.8-85.1-55.2-133.3-55.2s-96.5,18.4-133.3,55.2c-73.6,73.6-73.6,193,0,266.7
		c36.8,36.8,85.1,55.2,133.3,55.2s96.5-18.4,133.3-55.2C1705.7,626.4,1705.7,507,1632.1,433.3z M1565.4,633.3
		c-17.8,17.8-41.5,27.6-66.7,27.6s-48.9-9.8-66.7-27.6c-17.8-17.8-27.6-41.5-27.6-66.7c0-25.2,9.8-48.9,27.6-66.7
		c17.8-17.8,41.5-27.6,66.7-27.6s48.9,9.8,66.7,27.6s27.6,41.5,27.6,66.7C1593,591.8,1583.2,615.5,1565.4,633.3z"/>
	<polygon class="st0" points="968.7,1103.3 962.1,1096.7 967.9,1096.7 967.9,812.2 920.7,812.2 920.7,1055.3 798.8,933.3 
		765.4,966.7 898.8,1100 832.1,1166.7 698.8,1033.3 665.4,1066.7 798.8,1200 598.8,1400 665.4,1466.7 865.4,1266.7 998.8,1400 
		1032.1,1366.7 898.8,1233.3 965.4,1166.7 1098.8,1300 1132.1,1266.7 1010.1,1144.7 1253.2,1144.7 1253.2,1097.6 968.7,1097.6 	"/>
</g>
</svg>
