<svg id="图层_1" data-name="图层 1" xmlns="http://www.w3.org/2000/svg" viewBox="0 0 2000 2000"><defs><style>.cls-1{fill:#535353;}</style></defs><title>我的额度</title><path class="cls-1" d="M1761.9,476.19V261.9C1761.9,117.26,1644.65,0,1500,0H261.9C117.26,0,0,117.26,0,261.9V2000H2000V476.19ZM47.62,261.9c0-118.16,96.13-214.29,214.29-214.29H1500c118.16,0,214.29,96.13,214.29,214.29V476.19H47.62ZM1952.38,1952.38H47.62V523.81H1952.38Z"/><rect class="cls-1" x="238.1" y="714.29" width="95.24" height="1047.62"/><path class="cls-1" d="M1714.29,761.9v952.38H1523.81V761.9h190.48m47.62-47.62H1476.19V1761.9H1761.9V714.29Z"/><rect class="cls-1" x="428.57" y="714.29" width="95.24" height="1047.62"/></svg>