<?xml version="1.0" encoding="utf-8"?>
<!-- Generator: Adobe Illustrator 21.0.0, SVG Export Plug-In . SVG Version: 6.00 Build 0)  -->
<svg version="1.1" id="图层_1" xmlns="http://www.w3.org/2000/svg" xmlns:xlink="http://www.w3.org/1999/xlink" x="0px" y="0px"
	 viewBox="0 0 2000 2000" style="enable-background:new 0 0 2000 2000;" xml:space="preserve">
<style type="text/css">
	.st0{fill:#8E97A1;}
	.st1{fill:#FFFFFF;}
</style>
<path class="st0" d="M65.6,999l592.7,2.1l-2.2,621.6c-0.5,154.3-126.5,279.7-281.7,279.7l-31.2-0.1c-75-0.3-145.4-29.7-198.2-82.9
	c-52.8-53.2-81.8-123.8-81.5-198.8L65.6,999 M34.5,967.7l-2.3,652.8c-0.6,172.3,138.6,312.4,310.8,313.1l31.2,0.1c0.4,0,0.8,0,1.1,0
	c171.8,0,311.3-138.9,311.9-310.8l2.3-652.8L34.5,967.7L34.5,967.7z"/>
<path class="st0" d="M691.8,31.3L2001.5,36l-5.7,1590.9c-0.5,154.3-126.4,279.7-281.6,279.7L654,1902.9l-115-0.4
	c88.5-61.9,146.7-164.4,147.2-280.2L691.8,31.3 M660.7,0L655,1622.1c-0.6,171.9-140.1,310.8-311.8,310.8c-0.4,0-0.8,0-1.1,0
	l311.8,1.1l1060.3,3.8c0.4,0,0.8,0,1.1,0c171.7,0,311.2-138.9,311.8-310.8l5.8-1622.1L660.7,0L660.7,0z"/>
<path class="st0" d="M846.1,531.5l998.2,3.6l-2.1,592.7l-998.2-3.6L846.1,531.5 M815,500.2l-2.3,655.1l1060.6,3.8l2.3-655.1
	L815,500.2L815,500.2z"/>
<g>
	<path class="st1" d="M1136.8,1296.8l720.3,2.6L1136.8,1296.8z"/>
	<polygon class="st0" points="812.2,1280.1 812.1,1311.3 1872.7,1315 1872.8,1283.9 812.2,1280.1 	"/>
</g>
<g>
	<path class="st1" d="M827.2,1451.7l351.1,1.2L827.2,1451.7z"/>
	<polygon class="st0" points="811.7,1436 811.5,1467.2 1373.1,1469.2 1373.2,1438 811.7,1436 	"/>
</g>
<g>
	<path class="st1" d="M1745.6,1985.3c-146.2-0.5-264.7-119.9-264.2-266.1c0.5-145.7,119.4-264.2,265.1-264.2
		c71.8,0.2,138.3,28.1,188.2,78.3c49.9,50.3,77.2,117,77,187.7c-0.5,145.7-119.5,264.2-265.1,264.2H1745.6z"/>
	<path class="st0" d="M1746.5,1439.4l0.9,31.2c137.6,0.5,249.2,112.8,248.7,250.4c-0.5,137.1-112.4,248.7-250.4,248.7
		c-137.6-0.5-249.2-112.8-248.7-250.4c0.5-137.1,112.4-248.7,249.5-248.7V1439.4 M1746.5,1439.4c-154.6,0-280.2,125-280.7,279.8
		c-0.6,155.1,124.7,281.2,279.8,281.8c0.3,0,0.7,0,1,0c154.6,0,280.2-125,280.7-279.8c0.6-155.1-124.7-281.2-279.8-281.8
		C1747.2,1439.4,1746.8,1439.4,1746.5,1439.4L1746.5,1439.4z"/>
</g>
<g>
	<path class="st0" d="M1728.3,1805.1l-81.7-0.3l0.1-18.3l81.7,0.3l0.1-27.7l-81.7-0.3l0.1-18.3l71.4,0.3l-99.2-140.4l39.4,0.1
		l50.2,77.3c14.3,22.9,22.4,35.6,35.9,57.4l2.1,0c14.4-21.7,22.3-34.7,36.3-57.1l50.8-76.9l38.6,0.1l-99.8,139.7l71,0.3l-0.1,18.3
		l-81.3-0.3l-0.1,27.7l81.3,0.3l-0.1,18.3l-81.3-0.3l-0.2,64.4l-33.7-0.1L1728.3,1805.1z"/>
</g>
</svg>
