<?xml version="1.0" encoding="utf-8"?>
<!-- Generator: Adobe Illustrator 21.0.0, SVG Export Plug-In . SVG Version: 6.00 Build 0)  -->
<svg version="1.1" id="图层_1" xmlns="http://www.w3.org/2000/svg" xmlns:xlink="http://www.w3.org/1999/xlink" x="0px" y="0px"
	 viewBox="0 0 2000 2000" style="enable-background:new 0 0 2000 2000;" xml:space="preserve">
<style type="text/css">
	.st0{fill:#8E97A1;}
	.st1{fill:#FFFFFF;}
</style>
<path class="st0" d="M2000,437.5h-312.5V0l-641.7,437.5h-91.7L312.5,0v437.5H0v250h93.8V1125v187.5V2000h812.5h187.5h812.5v-687.5
	V1125V687.5h93.8V437.5z M1656.3,59.1v378.4h-554.9L1656.3,59.1z M1062.5,468.8v187.5h-125V468.8h62.5H1062.5z M1062.5,1281.3h-125
	v-125h125V1281.3z M1093.8,1156.3H1875v125h-781.3V1156.3z M906.3,1281.3H125v-125h781.3V1281.3z M937.5,1125V687.5h125V1125H937.5z
	 M343.8,59.1l554.9,378.4H343.8V59.1z M31.3,656.3V468.8h281.3h593.8v187.5H93.8H31.3z M125,687.5h781.3V1125H125V687.5z
	 M125,1968.8v-656.3h781.3v656.3H125z M937.5,1968.8v-656.3h125v656.3H937.5z M1875,1968.8h-781.3v-656.3H1875V1968.8z M1875,1125
	h-781.3V687.5H1875V1125z M1968.8,656.3h-62.5h-812.5V468.8h593.8h281.3V656.3z"/>
</svg>
